# xmcd
#
# Track frame offsets: 
#        150
#        36302
#        91250
#        128826
#        168866
#        220558
#        261254
#        300870
#        321910
#
# Disc length: 4372 seconds
#
# Revision: 0
# Processed by: cddbd v1.5.2PL0 Copyright (c) Steve Scherf et al.
# Submitted via: ExactAudioCopyFreeDBPlugin 1.0
#
DISCID=6e111209
DTITLE=various, kubota makoto - 久保田麻琴 - ぞめき参 徳島阿波おどり 路上派
DYEAR=2011
DGENRE=Tribal
TTITLE0=zomeki no.21 (華舞遊)
TTITLE1=zomeki no.22 (竜美)
TTITLE2=zomeki no.23 (眉月連)
TTITLE3=zomeki no.24 (苔作)
TTITLE4=zomeki no.25 (阿波座流)
TTITLE5=zomeki no.26 (七彩連)
TTITLE6=zomeki special (新町橋よいよい囃子)
TTITLE7=Special Bonus Track zomeki DJ samples 1 (新町橋よいよい囃子)
TTITLE8=Special Bonus Track zomeki DJ samples 2 (眉月連)
EXTD=
EXTT0=
EXTT1=
EXTT2=
EXTT3=
EXTT4=
EXTT5=
EXTT6=
EXTT7=
EXTT8=
PLAYORDER=
